<svg width="28" height="32" viewBox="0 0 28 32" fill="none" xmlns="http://www.w3.org/2000/svg">
<path fill-rule="evenodd" clip-rule="evenodd" d="M8.11748 10.7403C7.28806 9.72102 1.90002 4.25352 3.05151 3.18364L5.10611 1.27339C5.44398 0.958394 5.96394 0.996644 6.25761 1.35889L11.4057 7.68365C11.6993 8.0459 11.6635 8.60052 11.3246 8.91552L9.27003 10.8258C8.93111 11.1408 8.4122 11.1025 8.11748 10.7403Z" stroke="white" stroke-width="1.5" stroke-linecap="round" stroke-linejoin="round"/>
<path fill-rule="evenodd" clip-rule="evenodd" d="M23.6932 29.4533L18.5462 23.1285C18.2515 22.7663 18.2873 22.2117 18.6272 21.8967L20.6818 19.9864C21.0207 19.6725 21.5397 19.7108 21.8333 20.073L26.9803 26.3978C27.2761 26.7589 27.2393 27.3147 26.9003 27.6297L24.8457 29.5388C24.5068 29.8538 23.9879 29.8155 23.6932 29.4533Z" stroke="white" stroke-width="1.5" stroke-linecap="round" stroke-linejoin="round"/>
<path d="M23.8572 29.8125C21.9099 31.5597 11.1454 32.1368 5.11635 24.7275C-0.91271 17.3194 0.801908 5.62952 2.66494 3.7699" stroke="white" stroke-width="1.5" stroke-linecap="round" stroke-linejoin="round"/>
<path d="M7.89825 11.4488C6.35626 13.2657 7.0741 17.0783 9.60866 20.1923C12.1443 23.3085 15.5756 24.5978 17.4734 23.2163" stroke="white" stroke-width="1.5" stroke-linecap="round" stroke-linejoin="round"/>
</svg>
